# xmcd
#
# Track frame offsets:
#	150
#	18495
#	33780
#	47787
#	67132
#	85265
#	102980
#	118167
#	133255
#	151502
#	166802
#	180765
#	200152
#	218262
#	235970
#	251160
#
# Disc length: 3551 seconds
#
# Revision: 1
# Processed by: cddbd v1.5.1PL2 Copyright (c) Steve Scherf et al.
# Submitted via: audiograbber 1.83.01
#
DISCID=d40ddd10
DTITLE=Various Artist - Sc2056
DYEAR=1900
DGENRE=Country
TTITLE0=Dean, Billy - That Girl's Been Spying On Me
TTITLE1=Hayes, Wade - On A Good Night
TTITLE2=Strait, George - Blue Clear Sky
TTITLE3=Brooks and Dunn - I Am That Man
TTITLE4=Kershaw, Sammy - Meant To Be
TTITLE5=Sawyer Brown - Treat Her Right
TTITLE6=Lawrence, Tracy - Time Marches On
TTITLE7=McCoy, Neal - Then You Can't Tell Me Goodbye
TTITLE8=Dean, Billy - That Girl's Been Spying On Me (Vocals)
TTITLE9=Hayes, Wade - On A Good Night (Vocals)
TTITLE10=Strait, George - Blue Clear Sky (Vocals)
TTITLE11=Brooks and Dunn - I Am That Man (Vocals)
TTITLE12=Kershaw, Sammy - Meant To Be (Vocals)
TTITLE13=Sawyer Brown - Treat Her Right (Vocals)
TTITLE14=Lawrence, Tracy - Time Marches On (Vocals)
TTITLE15=McCoy, Neal - Then You Can't Tell Me Goodbye (Vocals)
EXTD=
EXTT0=
EXTT1=
EXTT2=
EXTT3=
EXTT4=
EXTT5=
EXTT6=
EXTT7=
EXTT8=
EXTT9=
EXTT10=
EXTT11=
EXTT12=
EXTT13=
EXTT14=
EXTT15=
PLAYORDER=
